UNKNOWN
version=1
nRows=71
nColumns=9
inDegrees=no
endheader
time	time	pelvis_tilt	hip_flexion_r	knee_angle_r	ankle_angle_r	hip_flexion_l	knee_angle_l	ankle_angle_l
      0.00000000	      4.37000000	     -3.88770648	    -10.17211095	    -56.83848309	    -42.24219947	     11.53037061	    -28.20133038	     -6.52857125
      1.00000000	      4.38000000	     -3.95621215	     -8.85037967	    -58.21018597	    -40.61512593	     11.00037214	    -28.05768454	     -6.21070857
      2.00000000	      4.39000000	     -4.02480099	     -7.03613296	    -59.90945953	    -39.58213018	     10.30853120	    -27.85618963	     -5.53203243
      3.00000000	      4.40000000	     -4.07270289	     -5.03732256	    -61.62614832	    -37.19053906	      9.37757007	    -27.52207683	     -4.95201906
      4.00000000	      4.41000000	     -4.09236967	     -2.98656525	    -63.12182591	    -34.75436675	      8.30048703	    -27.06039692	     -4.39633728
      5.00000000	      4.42000000	     -4.07644553	     -1.02833410	    -64.27235445	    -32.44699315	      7.07243839	    -26.45896959	     -3.99181803
      6.00000000	      4.43000000	     -4.03042117	      0.79872759	    -65.04865054	    -30.32324495	      5.72438702	    -25.73301119	     -3.73001520
      7.00000000	      4.44000000	     -3.96349396	      2.48092963	    -65.45547985	    -28.33587443	      4.29723212	    -24.93656856	     -3.50667682
      8.00000000	      4.45000000	     -3.89346743	      4.01565618	    -65.50034659	    -26.88556200	      2.82560108	    -24.10525587	     -3.15673104
      9.00000000	      4.46000000	     -3.82042775	      5.40588902	    -65.19471428	    -25.47658771	      1.35888553	    -23.29572849	     -2.82781402
     10.00000000	      4.47000000	     -3.72878886	      6.65251325	    -64.55956450	    -22.12291919	     -0.11010749	    -22.51754512	     -2.09388538
     11.00000000	      4.48000000	     -3.63660048	      7.76872869	    -63.59647118	    -18.85050170	     -1.53916927	    -21.77398068	     -1.95522607
     12.00000000	      4.49000000	     -3.53080584	      8.74187229	    -62.31527241	    -16.36295683	     -2.94963820	    -21.08486125	     -1.53005242
     13.00000000	      4.50000000	     -3.39789115	      9.63447491	    -60.73682779	    -13.46465127	     -4.30823809	    -20.42098123	     -1.39669991
     14.00000000	      4.51000000	     -3.23261311	     10.47346149	    -58.88285151	    -11.04502580	     -5.59495361	    -19.80762192	     -1.35133700
     15.00000000	      4.52000000	     -3.02199650	     11.32195543	    -56.77370018	     -8.95351663	     -6.74602201	    -19.25745537	     -1.47862958
     16.00000000	      4.53000000	     -2.77629609	     11.95366318	    -54.39617291	     -7.17453551	     -8.01720290	    -18.70466492	     -1.53823899
     17.00000000	      4.54000000	     -2.47428799	     12.57385874	    -51.80751311	     -5.61494489	     -9.18056861	    -18.20789493	     -1.73722160
     18.00000000	      4.55000000	     -2.11818496	     12.95772467	    -49.02148930	     -4.39608071	    -10.54110827	    -17.67329661	     -1.81869458
     19.00000000	      4.56000000	     -1.74540793	     13.33743434	    -46.01943395	     -2.74851719	    -11.75314711	    -17.23527281	     -1.89736158
     20.00000000	      4.57000000	     -1.31950169	     13.57494224	    -42.86422980	     -1.29222436	    -13.08037738	    -16.77199386	     -1.91774242
     21.00000000	      4.58000000	     -0.87933285	     13.70904876	    -39.53320788	      0.18074394	    -14.44178720	    -16.30487714	     -1.91277851
     22.00000000	      4.59000000	     -0.43434675	     13.75089011	    -36.01809700	      1.56805973	    -15.81837536	    -15.82187848	     -1.93256510
     23.00000000	      4.60000000	      0.00163500	     13.70215047	    -32.31478016	      2.73330665	    -17.20241977	    -15.32084878	     -1.97543792
     24.00000000	      4.61000000	      0.41195324	     13.57228341	    -28.45100899	      3.45086480	    -18.59568890	    -14.81183190	     -1.96817571
     25.00000000	      4.62000000	      0.79636865	     13.43847764	    -24.48281536	      4.14621694	    -19.90011047	    -14.32056682	     -2.10987359
     26.00000000	      4.63000000	      1.15111436	     13.26795070	    -20.50467394	      4.54467326	    -21.19038247	    -13.86262434	     -2.02317119
     27.00000000	      4.64000000	      1.43517111	     13.10999379	    -16.57024660	      4.69937829	    -22.37181576	    -13.47520442	     -2.00579463
     28.00000000	      4.65000000	      1.67514769	     13.00498191	    -12.82887330	      4.42069417	    -23.42047150	    -13.20808649	     -1.88734670
     29.00000000	      4.66000000	      1.85358663	     12.95627215	     -9.46024509	      4.19955177	    -24.36806272	    -13.05970569	     -1.76813559
     30.00000000	      4.67000000	      2.00457463	     12.95604293	     -6.63340361	      4.20724394	    -25.20249423	    -13.09679268	     -1.58110328
     31.00000000	      4.68000000	      2.12735564	     13.06236953	     -4.53160124	      4.24173354	    -25.95532157	    -13.29404511	     -1.46808915
     32.00000000	      4.69000000	      2.20531025	     13.27627049	     -3.28328524	      4.35828264	    -26.64477025	    -13.68402161	     -1.31633586
     33.00000000	      4.70000000	      2.24129249	     13.61376542	     -2.92965164	      4.48778085	    -27.26537102	    -14.25898800	     -1.25066813
     34.00000000	      4.71000000	      2.24027526	     14.04509647	     -3.42168157	      4.26189941	    -27.81523272	    -15.04367131	     -1.04859287
     35.00000000	      4.72000000	      2.14176584	     14.49801998	     -4.59248693	      3.20287481	    -28.32117926	    -15.98829358	     -0.98970627
     36.00000000	      4.73000000	      1.96316595	     14.93560964	     -6.26816341	      1.12024599	    -28.74407823	    -17.11214056	     -1.08119213
     37.00000000	      4.74000000	      1.73519094	     15.30897565	     -8.25867692	     -2.03000020	    -29.08366988	    -18.41320942	     -1.36492851
     38.00000000	      4.75000000	      1.29392322	     15.40665322	    -10.31429001	     -5.05568172	    -29.50480336	    -19.83164391	     -2.17649899
     39.00000000	      4.76000000	      0.86476750	     15.55579813	    -12.36746405	     -8.07103273	    -29.53555862	    -21.60243148	     -3.37499713
     40.00000000	      4.77000000	      0.28109982	     15.55563777	    -14.30823560	    -10.44541207	    -29.35994762	    -23.68490601	     -5.25514963
     41.00000000	      4.78000000	     -0.42088508	     15.50168131	    -16.13998046	    -11.87789989	    -28.79131863	    -26.22174280	     -7.82340692
     42.00000000	      4.79000000	     -1.23232196	     15.43021740	    -17.90395387	    -12.04674207	    -27.77975320	    -29.28484027	    -10.94089259
     43.00000000	      4.80000000	     -2.13511461	     15.26976017	    -19.60307528	    -11.74568708	    -26.43479099	    -32.81349659	    -14.87858551
     44.00000000	      4.81000000	     -3.05454071	     15.05895091	    -21.22882214	    -10.47485392	    -24.76492349	    -36.72326852	    -19.15284681
     45.00000000	      4.82000000	     -3.89665255	     14.74987401	    -22.70687644	     -8.73772473	    -22.87037728	    -40.81275063	    -23.82878542
     46.00000000	      4.83000000	     -4.57872705	     14.29710164	    -23.91568138	     -6.92606870	    -20.83102160	    -44.84959500	    -28.74524378
     47.00000000	      4.84000000	     -5.06055934	     13.67708316	    -24.75278455	     -5.44292618	    -18.69416638	    -48.66389203	    -33.66495516
     48.00000000	      4.85000000	     -5.34389764	     12.89661581	    -25.17408295	     -4.46927103	    -16.49873318	    -52.14762780	    -38.22014337
     49.00000000	      4.86000000	     -5.45874190	     11.99738724	    -25.21564394	     -3.94207888	    -14.26818690	    -55.26708211	    -41.99110825
     50.00000000	      4.87000000	     -5.46234026	     11.01324742	    -24.96223111	     -3.52392957	    -12.02568039	    -58.04809281	    -44.71346678
     51.00000000	      4.88000000	     -5.37685245	     10.04102623	    -24.50766534	     -3.21390385	     -9.71873062	    -60.54938242	    -46.07934956
     52.00000000	      4.89000000	     -5.28154063	      9.03397133	    -23.92498699	     -2.64352230	     -7.36278831	    -62.81046586	    -43.98113853
     53.00000000	      4.90000000	     -5.17671253	      7.91096753	    -23.27071016	     -2.19250698	     -5.13657275	    -64.75382880	    -41.51386708
     54.00000000	      4.91000000	     -5.07906396	      6.80913970	    -22.60705016	     -1.55242904	     -2.82061027	    -66.44183591	    -38.47598826
     55.00000000	      4.92000000	     -4.99714833	      5.56572270	    -21.92346741	     -1.20898334	     -0.71833924	    -67.75109276	    -35.44561893
     56.00000000	      4.93000000	     -4.95988592	      4.15064047	    -21.16145029	     -1.00243752	      1.27835221	    -68.74759584	    -32.58380283
     57.00000000	      4.94000000	     -4.94339532	      2.75887921	    -20.40107262	     -0.89343006	      3.23068697	    -69.41343749	    -29.80762190
     58.00000000	      4.95000000	     -4.95537297	      1.33048931	    -19.61388226	     -0.76455477	      5.11850003	    -69.77038552	    -26.46135517
     59.00000000	      4.96000000	     -4.96521848	     -0.09415848	    -18.82414260	     -0.64497873	      6.92123696	    -69.81085149	    -25.08938557
     60.00000000	      4.97000000	     -4.99859106	     -1.47573557	    -18.06882564	     -0.43267874	      8.66363237	    -69.56707953	    -22.10909935
     61.00000000	      4.98000000	     -5.02747943	     -2.85399139	    -17.36639290	     -0.35805358	     10.21490323	    -68.98755967	    -19.67356281
     62.00000000	      4.99000000	     -5.06579680	     -4.23208451	    -16.68999231	     -0.27643560	     11.65562196	    -68.10969983	    -17.26554496
     63.00000000	      5.00000000	     -5.13679182	     -5.49851481	    -16.07509746	     -0.37741001	     13.03406992	    -66.92893860	    -15.03110780
     64.00000000	      5.01000000	     -5.27209838	     -6.77045294	    -15.46884415	     -0.53582271	     14.28322419	    -65.44921101	    -13.10079218
     65.00000000	      5.02000000	     -5.49140870	     -8.06634330	    -14.85096609	     -0.72074496	     15.38550018	    -63.66337880	    -11.48759833
     66.00000000	      5.03000000	     -5.80642554	     -9.42399601	    -14.19191466	     -0.92114144	     16.33850154	    -61.59084696	    -10.39597604
     67.00000000	      5.04000000	     -6.20241270	    -10.71982503	    -13.55093047	     -1.11489330	     17.18527255	    -59.22411274	     -8.95241672
     68.00000000	      5.05000000	     -6.65416007	    -12.19465540	    -12.84275078	     -1.18519114	     17.76389066	    -56.56403245	     -7.96263979
     69.00000000	      5.06000000	     -7.15348291	    -13.60376920	    -12.13754188	     -1.35370182	     18.29085237	    -53.66941518	     -6.54670373
     70.00000000	      5.07000000	     -7.65532177	    -15.18456613	    -11.38254312	     -1.40722314	     18.52632644	    -50.47856239	     -5.29217424
